<svg width="113" height="36" viewBox="0 0 113 36" fill="none" xmlns="http://www.w3.org/2000/svg">
<path d="M7.99219 17.2109C7.82812 16.9844 7.70312 16.7305 7.61719 16.4492C7.53906 16.168 7.48047 15.9023 7.44141 15.6523C7.40234 15.3945 7.37891 15.1719 7.37109 14.9844C7.37109 14.7969 7.37109 14.6836 7.37109 14.6445C7.37109 14.3945 7.35938 14.0977 7.33594 13.7539C7.32031 13.4023 7.27734 13.043 7.20703 12.6758C7.13672 12.3008 7.03516 11.9336 6.90234 11.5742C6.77734 11.207 6.60156 10.8789 6.375 10.5898C6.15625 10.3008 5.88281 10.0703 5.55469 9.89844C5.23438 9.71875 4.84766 9.62891 4.39453 9.62891C4.33203 9.62891 4.26562 9.63281 4.19531 9.64062C4.13281 9.64844 4.07031 9.65234 4.00781 9.65234V16.9531L0.773438 17.0234C0.820312 16.75 0.859375 16.4297 0.890625 16.0625C0.929688 15.6875 0.960938 15.293 0.984375 14.8789C1.00781 14.457 1.02734 14.0195 1.04297 13.5664C1.05859 13.1133 1.07031 12.668 1.07812 12.2305C1.08594 11.793 1.08984 11.3711 1.08984 10.9648C1.09766 10.5508 1.10156 10.1797 1.10156 9.85156C1.10156 9.60156 1.09766 9.23438 1.08984 8.75C1.08984 8.26562 1.08203 7.72266 1.06641 7.12109C1.05859 6.51172 1.04688 5.875 1.03125 5.21094C1.02344 4.53906 1.01172 3.89844 0.996094 3.28906C0.980469 2.67188 0.960938 2.11328 0.9375 1.61328C0.921875 1.10547 0.90625 0.714844 0.890625 0.441406C1.32031 0.355469 1.78125 0.292969 2.27344 0.253906C2.76562 0.207031 3.22266 0.171875 3.64453 0.148438C4.13672 0.117187 4.625 0.101562 5.10938 0.101562C5.89062 0.0703125 6.625 0.136719 7.3125 0.300781C8 0.457031 8.60156 0.726562 9.11719 1.10938C9.64062 1.48438 10.0547 1.97266 10.3594 2.57422C10.6719 3.16797 10.8359 3.87891 10.8516 4.70703C10.7266 5.29297 10.5273 5.83594 10.2539 6.33594C10.1367 6.54688 9.99609 6.76562 9.83203 6.99219C9.67578 7.21094 9.48828 7.41797 9.26953 7.61328C9.05859 7.80859 8.81641 7.98828 8.54297 8.15234C8.26953 8.30859 7.96484 8.43359 7.62891 8.52734C8.12891 8.72266 8.53516 8.95312 8.84766 9.21875C9.16016 9.47656 9.40625 9.76953 9.58594 10.0977C9.76562 10.418 9.89453 10.7656 9.97266 11.1406C10.0586 11.5078 10.1172 11.8984 10.1484 12.3125C10.1875 12.7188 10.2188 13.1406 10.2422 13.5781C10.2656 14.0078 10.3086 14.4453 10.3711 14.8906C10.4336 15.2266 10.5117 15.5469 10.6055 15.8516C10.6914 16.1172 10.7969 16.3867 10.9219 16.6602C11.0547 16.9258 11.2148 17.1445 11.4023 17.3164L7.99219 17.2109ZM7.875 4.85938C7.86719 4.35938 7.75781 3.91016 7.54688 3.51172C7.45312 3.34766 7.33203 3.18359 7.18359 3.01953C7.04297 2.85547 6.86328 2.71094 6.64453 2.58594C6.43359 2.46094 6.17578 2.35938 5.87109 2.28125C5.57422 2.20312 5.22656 2.16406 4.82812 2.16406C4.52344 2.16406 4.1875 2.20703 3.82031 2.29297L3.86719 7.58984C4.00781 7.61328 4.14844 7.63281 4.28906 7.64844C4.42969 7.65625 4.55859 7.66016 4.67578 7.66016C5.05078 7.66016 5.38281 7.62109 5.67188 7.54297C5.96094 7.46484 6.21484 7.35938 6.43359 7.22656C6.65234 7.09375 6.83984 6.94531 6.99609 6.78125C7.15234 6.61719 7.28516 6.44531 7.39453 6.26562C7.64453 5.85156 7.80469 5.38281 7.875 4.85938ZM16.2891 17.668C15.5156 17.668 14.8477 17.5 14.2852 17.1641C13.7305 16.8281 13.2695 16.3594 12.9023 15.7578C12.543 15.1562 12.2773 14.4414 12.1055 13.6133C11.9336 12.7852 11.8477 11.8828 11.8477 10.9062C11.8477 9.77344 11.9492 8.73438 12.1523 7.78906C12.3555 6.84375 12.6523 6.03125 13.043 5.35156C13.4414 4.67188 13.9297 4.14453 14.5078 3.76953C15.0938 3.38672 15.7656 3.19531 16.5234 3.19531C17.2891 3.19531 17.9492 3.35547 18.5039 3.67578C19.0586 3.99609 19.5156 4.44531 19.875 5.02344C20.2422 5.60156 20.5117 6.29297 20.6836 7.09766C20.8555 7.90234 20.9414 8.78906 20.9414 9.75781C20.9414 10.2578 20.9102 10.8008 20.8477 11.3867C20.793 11.9727 20.6953 12.5586 20.5547 13.1445C20.4219 13.7305 20.2422 14.2969 20.0156 14.8438C19.7891 15.3828 19.5039 15.8633 19.1602 16.2852C18.8164 16.707 18.4062 17.043 17.9297 17.293C17.4609 17.543 16.9141 17.668 16.2891 17.668ZM18.1172 8.89062C18.1172 8.29688 18.0898 7.76562 18.0352 7.29688C17.9805 6.82031 17.8906 6.41797 17.7656 6.08984C17.6484 5.76172 17.4961 5.51172 17.3086 5.33984C17.1289 5.16016 16.9102 5.07031 16.6523 5.07031C16.3711 5.07031 16.1094 5.21875 15.8672 5.51562C15.625 5.8125 15.4102 6.24219 15.2227 6.80469C15.043 7.36719 14.8984 8.05469 14.7891 8.86719C14.6875 9.67188 14.6367 10.582 14.6367 11.5977C14.6367 12.2539 14.668 12.8438 14.7305 13.3672C14.793 13.8828 14.8867 14.3242 15.0117 14.6914C15.1367 15.0508 15.2891 15.3281 15.4688 15.5234C15.6562 15.7109 15.875 15.8047 16.125 15.8047C16.375 15.8047 16.5977 15.7031 16.793 15.5C16.9883 15.2891 17.1562 15.0078 17.2969 14.6562C17.4453 14.3047 17.5703 13.8984 17.6719 13.4375C17.7812 12.9688 17.8672 12.4805 17.9297 11.9727C17.9922 11.457 18.0391 10.9336 18.0703 10.4023C18.1016 9.87109 18.1172 9.36719 18.1172 8.89062ZM29.8945 10.8828C29.8945 11.3516 29.8906 11.7617 29.8828 12.1133C29.875 12.457 29.8633 12.7734 29.8477 13.0625C29.8398 13.3438 29.8242 13.6133 29.8008 13.8711C29.7852 14.1211 29.7656 14.3906 29.7422 14.6797C29.7188 14.9609 29.6914 15.2812 29.6602 15.6406C29.6289 15.9922 29.5938 16.4062 29.5547 16.8828L26.918 16.9062C27.0273 15.6484 27.1055 14.4414 27.1523 13.2852C27.207 12.1211 27.2344 10.9688 27.2344 9.82812C27.2344 8.74219 27.1328 7.94922 26.9297 7.44922C26.7344 6.94922 26.4336 6.69922 26.0273 6.69922C25.8711 6.74609 25.7188 6.85156 25.5703 7.01562C25.4375 7.15625 25.3008 7.37109 25.1602 7.66016C25.0273 7.94922 24.9102 8.35156 24.8086 8.86719C24.793 9.25 24.7852 9.62891 24.7852 10.0039C24.7852 10.3711 24.7852 10.7344 24.7852 11.0938C24.7852 11.5156 24.7852 11.9453 24.7852 12.3828C24.793 12.8203 24.7969 13.2891 24.7969 13.7891C24.8047 14.2891 24.8125 14.8281 24.8203 15.4062C24.8281 15.9766 24.8398 16.6055 24.8555 17.293L22.1836 17.2344C22.2383 16.3359 22.2852 15.5352 22.3242 14.832C22.3633 14.1289 22.3945 13.4805 22.418 12.8867C22.4492 12.293 22.4688 11.7305 22.4766 11.1992C22.4922 10.668 22.5 10.1211 22.5 9.55859C22.5 9.18359 22.4961 8.80078 22.4883 8.41016C22.4883 8.01172 22.4805 7.58594 22.4648 7.13281C22.457 6.67969 22.4453 6.19531 22.4297 5.67969C22.4141 5.15625 22.3984 4.58594 22.3828 3.96875L25.043 4.01562L24.9727 5.11719C25.1992 4.67188 25.4375 4.32812 25.6875 4.08594C25.9375 3.84375 26.1719 3.66797 26.3906 3.55859C26.6094 3.44922 26.793 3.38672 26.9414 3.37109C27.0977 3.35547 27.1953 3.34766 27.2344 3.34766C27.4688 3.34766 27.6914 3.37891 27.9023 3.44141C28.1211 3.50391 28.3242 3.62109 28.5117 3.79297C28.707 3.96484 28.8828 4.20312 29.0391 4.50781C29.2031 4.8125 29.3438 5.20703 29.4609 5.69141C29.6719 5.09766 29.9336 4.64062 30.2461 4.32031C30.5586 4 30.8633 3.76953 31.1602 3.62891C31.4648 3.48047 31.7305 3.39844 31.957 3.38281C32.1914 3.35938 32.3281 3.34766 32.3672 3.34766C32.8672 3.34766 33.2891 3.5 33.6328 3.80469C33.9766 4.10938 34.25 4.57422 34.4531 5.19922C34.6562 5.82422 34.8008 6.60938 34.8867 7.55469C34.9805 8.5 35.0273 9.60938 35.0273 10.8828C35.0273 11.3047 35.0078 11.793 34.9688 12.3477C34.9297 12.9023 34.8789 13.4766 34.8164 14.0703C34.7539 14.6562 34.6875 15.2383 34.6172 15.8164C34.5469 16.3945 34.4844 16.9102 34.4297 17.3633L31.793 17.2695C31.9258 16.4336 32.0273 15.6406 32.0977 14.8906C32.1758 14.1328 32.2344 13.4609 32.2734 12.875C32.3125 12.1953 32.3359 11.5625 32.3438 10.9766C32.3438 10.2344 32.3242 9.59375 32.2852 9.05469C32.2539 8.51562 32.1914 8.07422 32.0977 7.73047C32.0039 7.37891 31.875 7.12109 31.7109 6.95703C31.5469 6.78516 31.3398 6.69922 31.0898 6.69922C30.9258 6.74609 30.7695 6.83594 30.6211 6.96875C30.4883 7.07812 30.3477 7.24609 30.1992 7.47266C30.0586 7.69141 29.9336 7.98828 29.8242 8.36328C29.8711 9.08203 29.8945 9.92188 29.8945 10.8828ZM44.9766 14.4805C44.9766 14.9414 44.8711 15.375 44.6602 15.7812C44.4492 16.1875 44.1641 16.5391 43.8047 16.8359C43.4453 17.1328 43.0234 17.3672 42.5391 17.5391C42.0547 17.7109 41.5391 17.7969 40.9922 17.7969C40.625 17.7969 40.2539 17.7461 39.8789 17.6445C39.5039 17.543 39.1445 17.375 38.8008 17.1406C38.457 16.9062 38.1328 16.5977 37.8281 16.2148C37.5234 15.832 37.2578 15.3633 37.0312 14.8086C36.8125 14.2539 36.6367 13.6055 36.5039 12.8633C36.3789 12.1133 36.3164 11.2539 36.3164 10.2852C36.3164 9.37109 36.3789 8.5625 36.5039 7.85938C36.6367 7.15625 36.8125 6.54297 37.0312 6.01953C37.2578 5.49609 37.5195 5.05859 37.8164 4.70703C38.1133 4.34766 38.4297 4.05859 38.7656 3.83984C39.1094 3.61328 39.4609 3.45312 39.8203 3.35938C40.1875 3.26562 40.5469 3.21875 40.8984 3.21875C41.4219 3.21875 41.918 3.30469 42.3867 3.47656C42.8555 3.64062 43.2656 3.88672 43.6172 4.21484C43.9688 4.54297 44.2461 4.94922 44.4492 5.43359C44.6602 5.91016 44.7656 6.46094 44.7656 7.08594C44.7656 7.64844 44.6484 8.21875 44.4141 8.79688C44.1875 9.36719 43.8477 9.91016 43.3945 10.4258C42.9414 10.9336 42.3789 11.3984 41.707 11.8203C41.043 12.2344 40.2773 12.5625 39.4102 12.8047C39.457 13.2891 39.5234 13.7305 39.6094 14.1289C39.7031 14.5273 39.8164 14.8672 39.9492 15.1484C40.0898 15.4297 40.25 15.6484 40.4297 15.8047C40.6172 15.9609 40.832 16.0391 41.0742 16.0391C41.2305 16.0312 41.3789 16.0039 41.5195 15.957C41.6445 15.918 41.7695 15.8555 41.8945 15.7695C42.0273 15.6836 42.1367 15.5586 42.2227 15.3945C42.0195 15.3008 41.8633 15.1797 41.7539 15.0312C41.6445 14.8828 41.5625 14.7422 41.5078 14.6094C41.4453 14.4531 41.4102 14.2891 41.4023 14.1172C41.4023 13.7422 41.4766 13.4375 41.625 13.2031C41.7734 12.9688 41.9492 12.7852 42.1523 12.6523C42.3555 12.5195 42.5625 12.4297 42.7734 12.3828C42.9844 12.3281 43.1523 12.3008 43.2773 12.3008C43.4102 12.3008 43.5703 12.3281 43.7578 12.3828C43.9531 12.4375 44.1406 12.543 44.3203 12.6992C44.5 12.8555 44.6523 13.0781 44.7773 13.3672C44.9102 13.6484 44.9766 14.0195 44.9766 14.4805ZM42.082 7.10938C42.082 6.82812 42.0547 6.5625 42 6.3125C41.9531 6.05469 41.8789 5.83203 41.7773 5.64453C41.6836 5.45703 41.5625 5.30859 41.4141 5.19922C41.2734 5.08203 41.1094 5.02344 40.9219 5.02344C40.6016 5.02344 40.3398 5.17188 40.1367 5.46875C39.9336 5.75781 39.7695 6.14453 39.6445 6.62891C39.5195 7.11328 39.4336 7.67188 39.3867 8.30469C39.3398 8.9375 39.3164 9.59766 39.3164 10.2852V11.1406C39.7148 10.9297 40.082 10.6797 40.418 10.3906C40.7617 10.1016 41.0547 9.78516 41.2969 9.44141C41.5469 9.08984 41.7383 8.71875 41.8711 8.32812C42.0117 7.9375 42.082 7.53125 42.082 7.10938ZM49.2422 17.4805L46.1133 17.7148C46.2383 16.3164 46.3281 14.9688 46.3828 13.6719C46.4453 12.3672 46.4766 11.0625 46.4766 9.75781C46.4766 8.83594 46.4609 7.91406 46.4297 6.99219C46.4062 6.0625 46.3594 5.10938 46.2891 4.13281L48.9258 3.99219C48.9102 4.16406 48.8984 4.33203 48.8906 4.49609C48.8828 4.66016 48.8789 4.82031 48.8789 4.97656C49.1523 4.55469 49.4492 4.22656 49.7695 3.99219C50.0977 3.75 50.4023 3.57422 50.6836 3.46484C51.0039 3.33203 51.3281 3.25 51.6562 3.21875C52.2266 3.21875 52.7148 3.30859 53.1211 3.48828C53.5273 3.66016 53.8594 3.88672 54.1172 4.16797C54.375 4.44141 54.5625 4.75 54.6797 5.09375C54.7969 5.42969 54.8555 5.75781 54.8555 6.07812C54.8555 6.40625 54.8203 6.73828 54.75 7.07422C54.6797 7.41016 54.5586 7.71484 54.3867 7.98828C54.2227 8.25391 54 8.47266 53.7188 8.64453C53.4453 8.80859 53.1055 8.89062 52.6992 8.89062C52.293 8.89062 51.9727 8.81641 51.7383 8.66797C51.5039 8.51953 51.3242 8.34375 51.1992 8.14062C51.082 7.92969 51.0039 7.71484 50.9648 7.49609C50.9336 7.26953 50.918 7.07812 50.918 6.92188C50.918 6.8125 50.9375 6.69141 50.9766 6.55859C51.0156 6.41797 51.0742 6.27734 51.1523 6.13672C51.2305 5.99609 51.3281 5.85938 51.4453 5.72656C51.5625 5.58594 51.6992 5.45703 51.8555 5.33984C51.8086 5.32422 51.7578 5.3125 51.7031 5.30469C51.6562 5.29688 51.6094 5.29297 51.5625 5.29297C51.1719 5.29297 50.8242 5.41797 50.5195 5.66797C50.2148 5.91016 49.9492 6.25 49.7227 6.6875C49.5039 7.125 49.3203 7.64062 49.1719 8.23438C49.0312 8.82812 48.9258 9.47656 48.8555 10.1797C48.8945 11.3906 48.9492 12.5898 49.0195 13.7773C49.0898 14.9648 49.1641 16.1992 49.2422 17.4805ZM71.2734 17.1875H70.9453C70.4609 17.1875 70 17.2109 69.5625 17.2578C69.1328 17.3125 68.6719 17.3867 68.1797 17.4805C68.2812 15.7617 68.3594 14.1484 68.4141 12.6406C68.4688 11.125 68.4961 9.65625 68.4961 8.23438C68.4961 6.41406 68.4492 4.61719 68.3555 2.84375L65.4023 3.05469C65.3945 2.78906 65.3867 2.54688 65.3789 2.32812C65.3711 2.10156 65.3594 1.88672 65.3438 1.68359C65.3281 1.47266 65.3086 1.26172 65.2852 1.05078C65.2617 0.832031 65.2344 0.589844 65.2031 0.324219H66.6211C67.2461 0.324219 67.8555 0.320313 68.4492 0.3125C69.0508 0.304687 69.6484 0.292969 70.2422 0.277344C70.8438 0.261719 71.4492 0.242188 72.0586 0.21875C72.6758 0.195312 73.3125 0.164062 73.9688 0.125C73.9297 0.523438 73.9023 0.863281 73.8867 1.14453C73.8789 1.41797 73.875 1.70312 73.875 2V2.62109L70.9922 2.69141C70.9688 3.44141 70.9531 4.17969 70.9453 4.90625C70.9453 5.625 70.9453 6.35156 70.9453 7.08594C70.9453 8.78906 70.9727 10.4766 71.0273 12.1484C71.082 13.8203 71.1641 15.5 71.2734 17.1875ZM78.5156 17.668C77.7422 17.668 77.0742 17.5 76.5117 17.1641C75.957 16.8281 75.4961 16.3594 75.1289 15.7578C74.7695 15.1562 74.5039 14.4414 74.332 13.6133C74.1602 12.7852 74.0742 11.8828 74.0742 10.9062C74.0742 9.77344 74.1758 8.73438 74.3789 7.78906C74.582 6.84375 74.8789 6.03125 75.2695 5.35156C75.668 4.67188 76.1562 4.14453 76.7344 3.76953C77.3203 3.38672 77.9922 3.19531 78.75 3.19531C79.5156 3.19531 80.1758 3.35547 80.7305 3.67578C81.2852 3.99609 81.7422 4.44531 82.1016 5.02344C82.4688 5.60156 82.7383 6.29297 82.9102 7.09766C83.082 7.90234 83.168 8.78906 83.168 9.75781C83.168 10.2578 83.1367 10.8008 83.0742 11.3867C83.0195 11.9727 82.9219 12.5586 82.7812 13.1445C82.6484 13.7305 82.4688 14.2969 82.2422 14.8438C82.0156 15.3828 81.7305 15.8633 81.3867 16.2852C81.043 16.707 80.6328 17.043 80.1562 17.293C79.6875 17.543 79.1406 17.668 78.5156 17.668ZM80.3438 8.89062C80.3438 8.29688 80.3164 7.76562 80.2617 7.29688C80.207 6.82031 80.1172 6.41797 79.9922 6.08984C79.875 5.76172 79.7227 5.51172 79.5352 5.33984C79.3555 5.16016 79.1367 5.07031 78.8789 5.07031C78.5977 5.07031 78.3359 5.21875 78.0938 5.51562C77.8516 5.8125 77.6367 6.24219 77.4492 6.80469C77.2695 7.36719 77.125 8.05469 77.0156 8.86719C76.9141 9.67188 76.8633 10.582 76.8633 11.5977C76.8633 12.2539 76.8945 12.8438 76.957 13.3672C77.0195 13.8828 77.1133 14.3242 77.2383 14.6914C77.3633 15.0508 77.5156 15.3281 77.6953 15.5234C77.8828 15.7109 78.1016 15.8047 78.3516 15.8047C78.6016 15.8047 78.8242 15.7031 79.0195 15.5C79.2148 15.2891 79.3828 15.0078 79.5234 14.6562C79.6719 14.3047 79.7969 13.8984 79.8984 13.4375C80.0078 12.9688 80.0938 12.4805 80.1562 11.9727C80.2188 11.457 80.2656 10.9336 80.2969 10.4023C80.3281 9.87109 80.3438 9.36719 80.3438 8.89062ZM90.2461 17.1172C90.2617 16.8047 90.2773 16.5078 90.293 16.2266C90.3164 15.9375 90.3398 15.6602 90.3633 15.3945C90.0977 15.8633 89.8125 16.2227 89.5078 16.4727C89.2109 16.7227 88.9336 16.9102 88.6758 17.0352C88.3711 17.1758 88.0703 17.2617 87.7734 17.293C87.1953 17.293 86.6914 17.1484 86.2617 16.8594C85.832 16.5703 85.4766 16.1602 85.1953 15.6289C84.9141 15.0977 84.7031 14.4609 84.5625 13.7188C84.4297 12.9688 84.3633 12.1328 84.3633 11.2109C84.3633 9.92188 84.4023 8.67188 84.4805 7.46094C84.5664 6.25 84.7031 5.0625 84.8906 3.89844L87.8672 4.22656C87.6797 5.15625 87.5352 5.98828 87.4336 6.72266C87.3398 7.44922 87.2695 8.07031 87.2227 8.58594C87.168 9.1875 87.1367 9.71094 87.1289 10.1562C87.1289 10.8984 87.1523 11.5469 87.1992 12.1016C87.2461 12.6484 87.3281 13.1055 87.4453 13.4727C87.5703 13.832 87.7383 14.1016 87.9492 14.2812C88.1602 14.4609 88.4297 14.5508 88.7578 14.5508C88.9844 14.5117 89.207 14.3555 89.4258 14.082C89.5195 13.9648 89.6172 13.8164 89.7188 13.6367C89.8203 13.4492 89.9219 13.2227 90.0234 12.957C90.125 12.6914 90.2227 12.3789 90.3164 12.0195C90.4102 11.6602 90.5 11.2422 90.5859 10.7656C90.6016 10.3047 90.6094 9.84766 90.6094 9.39453C90.6094 8.93359 90.6094 8.4375 90.6094 7.90625C90.6094 7.34375 90.6094 6.73047 90.6094 6.06641C90.6094 5.40234 90.6016 4.65625 90.5859 3.82812L93.2461 3.875C93.207 4.46875 93.1758 5.01953 93.1523 5.52734C93.1289 6.02734 93.1094 6.5 93.0938 6.94531C93.0859 7.38281 93.0781 7.79688 93.0703 8.1875C93.0625 8.57812 93.0586 8.95703 93.0586 9.32422C93.0586 9.88672 93.0625 10.4375 93.0703 10.9766C93.0859 11.5156 93.1055 12.0898 93.1289 12.6992C93.1523 13.3008 93.1758 13.9648 93.1992 14.6914C93.2305 15.4102 93.2617 16.2344 93.293 17.1641L90.2461 17.1172ZM97.9688 17.4805L94.8398 17.7148C94.9648 16.3164 95.0547 14.9688 95.1094 13.6719C95.1719 12.3672 95.2031 11.0625 95.2031 9.75781C95.2031 8.83594 95.1875 7.91406 95.1562 6.99219C95.1328 6.0625 95.0859 5.10938 95.0156 4.13281L97.6523 3.99219C97.6367 4.16406 97.625 4.33203 97.6172 4.49609C97.6094 4.66016 97.6055 4.82031 97.6055 4.97656C97.8789 4.55469 98.1758 4.22656 98.4961 3.99219C98.8242 3.75 99.1289 3.57422 99.4102 3.46484C99.7305 3.33203 100.055 3.25 100.383 3.21875C100.953 3.21875 101.441 3.30859 101.848 3.48828C102.254 3.66016 102.586 3.88672 102.844 4.16797C103.102 4.44141 103.289 4.75 103.406 5.09375C103.523 5.42969 103.582 5.75781 103.582 6.07812C103.582 6.40625 103.547 6.73828 103.477 7.07422C103.406 7.41016 103.285 7.71484 103.113 7.98828C102.949 8.25391 102.727 8.47266 102.445 8.64453C102.172 8.80859 101.832 8.89062 101.426 8.89062C101.02 8.89062 100.699 8.81641 100.465 8.66797C100.23 8.51953 100.051 8.34375 99.9258 8.14062C99.8086 7.92969 99.7305 7.71484 99.6914 7.49609C99.6602 7.26953 99.6445 7.07812 99.6445 6.92188C99.6445 6.8125 99.6641 6.69141 99.7031 6.55859C99.7422 6.41797 99.8008 6.27734 99.8789 6.13672C99.957 5.99609 100.055 5.85938 100.172 5.72656C100.289 5.58594 100.426 5.45703 100.582 5.33984C100.535 5.32422 100.484 5.3125 100.43 5.30469C100.383 5.29688 100.336 5.29297 100.289 5.29297C99.8984 5.29297 99.5508 5.41797 99.2461 5.66797C98.9414 5.91016 98.6758 6.25 98.4492 6.6875C98.2305 7.125 98.0469 7.64062 97.8984 8.23438C97.7578 8.82812 97.6523 9.47656 97.582 10.1797C97.6211 11.3906 97.6758 12.5898 97.7461 13.7773C97.8164 14.9648 97.8906 16.1992 97.9688 17.4805ZM112.523 6.44141C112.523 6.80078 112.457 7.10547 112.324 7.35547C112.191 7.60547 112.031 7.80859 111.844 7.96484C111.656 8.12109 111.461 8.23438 111.258 8.30469C111.055 8.375 110.883 8.41016 110.742 8.41016C110.602 8.41016 110.434 8.38672 110.238 8.33984C110.043 8.28516 109.855 8.19141 109.676 8.05859C109.504 7.92578 109.355 7.75 109.23 7.53125C109.105 7.30469 109.043 7.01953 109.043 6.67578C109.051 6.48828 109.086 6.30469 109.148 6.125C109.203 5.96875 109.285 5.80859 109.395 5.64453C109.512 5.47266 109.676 5.32031 109.887 5.1875C109.746 4.98438 109.605 4.82812 109.465 4.71875C109.324 4.60938 109.199 4.52734 109.09 4.47266C108.957 4.41016 108.836 4.37109 108.727 4.35547C108.484 4.35547 108.266 4.40625 108.07 4.50781C107.875 4.60156 107.707 4.73047 107.566 4.89453C107.434 5.05078 107.328 5.23438 107.25 5.44531C107.18 5.65625 107.145 5.875 107.145 6.10156C107.145 6.39062 107.164 6.65234 107.203 6.88672C107.242 7.12109 107.332 7.35938 107.473 7.60156C107.613 7.84375 107.824 8.10547 108.105 8.38672C108.387 8.66797 108.77 8.99609 109.254 9.37109C109.738 9.74609 110.16 10.1133 110.52 10.4727C110.879 10.8242 111.176 11.1719 111.41 11.5156C111.645 11.8594 111.82 12.207 111.938 12.5586C112.055 12.9023 112.113 13.2617 112.113 13.6367C112.113 13.8867 112.086 14.1602 112.031 14.457C111.984 14.7461 111.898 15.043 111.773 15.3477C111.656 15.6445 111.496 15.9336 111.293 16.2148C111.098 16.4883 110.852 16.7344 110.555 16.9531C110.266 17.1719 109.922 17.3438 109.523 17.4688C109.133 17.6016 108.684 17.668 108.176 17.668C107.41 17.668 106.758 17.5547 106.219 17.3281C105.68 17.1016 105.234 16.8281 104.883 16.5078C104.539 16.1797 104.285 15.8359 104.121 15.4766C103.965 15.1172 103.887 14.8008 103.887 14.5273C103.887 14.2383 103.922 13.9688 103.992 13.7188C104.062 13.4688 104.172 13.25 104.32 13.0625C104.477 12.875 104.672 12.7305 104.906 12.6289C105.148 12.5195 105.438 12.4648 105.773 12.4648C106.055 12.4648 106.309 12.5078 106.535 12.5938C106.77 12.6797 106.969 12.8086 107.133 12.9805C107.305 13.1445 107.438 13.3477 107.531 13.5898C107.625 13.832 107.672 14.1055 107.672 14.4102C107.664 14.543 107.637 14.6797 107.59 14.8203C107.551 14.9375 107.484 15.0664 107.391 15.207C107.297 15.3477 107.168 15.4805 107.004 15.6055C107.113 15.6914 107.219 15.7578 107.32 15.8047C107.43 15.8438 107.527 15.8711 107.613 15.8867C107.707 15.9102 107.801 15.9219 107.895 15.9219C107.996 15.9219 108.113 15.8945 108.246 15.8398C108.387 15.7773 108.52 15.6836 108.645 15.5586C108.77 15.4336 108.875 15.2812 108.961 15.1016C109.047 14.9219 109.09 14.707 109.09 14.457C109.09 14.207 109.066 13.9805 109.02 13.7773C108.98 13.5664 108.891 13.3516 108.75 13.1328C108.617 12.9062 108.422 12.6602 108.164 12.3945C107.906 12.1289 107.566 11.8086 107.145 11.4336C106.723 11.0586 106.348 10.6953 106.02 10.3438C105.691 9.98438 105.414 9.61328 105.188 9.23047C104.969 8.84766 104.801 8.44531 104.684 8.02344C104.566 7.60156 104.508 7.13672 104.508 6.62891C104.508 6.12891 104.605 5.64453 104.801 5.17578C105.004 4.70703 105.289 4.29297 105.656 3.93359C106.023 3.56641 106.469 3.27734 106.992 3.06641C107.516 2.84766 108.102 2.73828 108.75 2.73828C109.406 2.73828 109.973 2.83984 110.449 3.04297C110.926 3.24609 111.316 3.51953 111.621 3.86328C111.926 4.19922 112.152 4.58984 112.301 5.03516C112.449 5.48047 112.523 5.94922 112.523 6.44141ZM8.42871 29.1895C8.42871 29.5039 8.38542 29.7546 8.29883 29.9414C8.2168 30.1237 8.11654 30.2627 7.99805 30.3584C7.88411 30.4495 7.76562 30.5088 7.64258 30.5361C7.52409 30.5635 7.42611 30.5771 7.34863 30.5771C7.27116 30.5771 7.17773 30.5658 7.06836 30.543C6.95898 30.5156 6.85189 30.4655 6.74707 30.3926C6.64681 30.3151 6.56022 30.208 6.4873 30.0713C6.41895 29.93 6.38477 29.7477 6.38477 29.5244C6.38932 29.4014 6.41211 29.2806 6.45312 29.1621C6.48958 29.0618 6.54427 28.9593 6.61719 28.8545C6.6901 28.7497 6.79492 28.6608 6.93164 28.5879C6.85417 28.4147 6.76758 28.2826 6.67188 28.1914C6.58073 28.1003 6.49186 28.0319 6.40527 27.9863C6.30501 27.9362 6.20475 27.9043 6.10449 27.8906C5.93587 27.8906 5.7832 27.9681 5.64648 28.123C5.50977 28.278 5.39355 28.4967 5.29785 28.7793C5.20215 29.0573 5.12695 29.3923 5.07227 29.7842C5.02214 30.1761 4.99707 30.609 4.99707 31.083C4.99707 31.5524 5.01302 31.9922 5.04492 32.4023C5.08138 32.8079 5.13835 33.1634 5.21582 33.4688C5.29329 33.7695 5.39811 34.0065 5.53027 34.1797C5.66243 34.3529 5.8265 34.4395 6.02246 34.4395C6.12728 34.4349 6.2321 34.4098 6.33691 34.3643C6.42806 34.3278 6.52376 34.2686 6.62402 34.1865C6.72884 34.0999 6.82227 33.9792 6.9043 33.8242C6.74479 33.7467 6.62174 33.6533 6.53516 33.5439C6.45312 33.43 6.39388 33.3206 6.35742 33.2158C6.31185 33.0928 6.28678 32.9652 6.28223 32.833C6.28223 32.6143 6.32552 32.4365 6.41211 32.2998C6.4987 32.1631 6.60124 32.056 6.71973 31.9785C6.83822 31.8965 6.95898 31.8418 7.08203 31.8145C7.20508 31.7826 7.30306 31.7666 7.37598 31.7666C7.45345 31.7666 7.54915 31.7826 7.66309 31.8145C7.77702 31.8464 7.88639 31.9079 7.99121 31.999C8.09603 32.0902 8.1849 32.2201 8.25781 32.3887C8.33529 32.5527 8.37402 32.7692 8.37402 33.0381C8.37402 33.307 8.30794 33.585 8.17578 33.8721C8.04818 34.1592 7.87272 34.4212 7.64941 34.6582C7.43066 34.8952 7.17546 35.0889 6.88379 35.2393C6.59668 35.3896 6.29362 35.4648 5.97461 35.4648C5.76042 35.4648 5.54395 35.4352 5.3252 35.376C5.10645 35.3167 4.89681 35.2188 4.69629 35.082C4.49577 34.9453 4.30664 34.7653 4.12891 34.542C3.95117 34.3187 3.79622 34.0452 3.66406 33.7217C3.53646 33.3981 3.43392 33.0199 3.35645 32.5869C3.28353 32.1494 3.24707 31.6481 3.24707 31.083C3.24707 30.5179 3.28809 30.0234 3.37012 29.5996C3.45215 29.1712 3.5638 28.8044 3.70508 28.499C3.85091 28.1937 4.01725 27.9408 4.2041 27.7402C4.39095 27.5397 4.58919 27.3802 4.79883 27.2617C5.01302 27.1432 5.23177 27.0612 5.45508 27.0156C5.67839 26.9701 5.89486 26.9473 6.10449 26.9473C6.41439 26.9473 6.71061 27.0065 6.99316 27.125C7.27572 27.2389 7.52181 27.3984 7.73145 27.6035C7.94564 27.804 8.11426 28.041 8.2373 28.3145C8.36491 28.5879 8.42871 28.8796 8.42871 29.1895ZM12.3799 35.2803C12.3525 35.139 12.3275 34.9954 12.3047 34.8496C12.2819 34.7038 12.2637 34.5534 12.25 34.3984C12.0404 34.7083 11.7897 34.9453 11.498 35.1094C11.2064 35.278 10.8874 35.3623 10.541 35.3623C10.3633 35.3623 10.181 35.3327 9.99414 35.2734C9.80729 35.2188 9.63639 35.1208 9.48145 34.9795C9.33105 34.8382 9.20573 34.6468 9.10547 34.4053C9.00977 34.1592 8.96191 33.8493 8.96191 33.4756C8.96191 33.1657 9.00749 32.8968 9.09863 32.6689C9.18978 32.4365 9.30827 32.2337 9.4541 32.0605C9.59993 31.8874 9.764 31.737 9.94629 31.6094C10.1286 31.4818 10.3086 31.3678 10.4863 31.2676C10.6686 31.1673 10.8418 31.0739 11.0059 30.9873C11.1699 30.9007 11.3044 30.8141 11.4092 30.7275C11.6097 30.568 11.7829 30.3994 11.9287 30.2217C12.0791 30.0394 12.1999 29.8503 12.291 29.6543C12.2728 29.3398 12.2386 29.0824 12.1885 28.8818C12.1429 28.6768 12.0814 28.515 12.0039 28.3965C11.9264 28.2734 11.8307 28.1891 11.7168 28.1436C11.6074 28.0934 11.4821 28.0684 11.3408 28.0684C11.1312 28.0684 10.9535 28.1139 10.8076 28.2051C10.6663 28.2962 10.5501 28.4056 10.459 28.5332C10.5729 28.6061 10.6595 28.6836 10.7188 28.7656C10.7826 28.8477 10.8304 28.9274 10.8623 29.0049C10.8988 29.0915 10.9193 29.1803 10.9238 29.2715C10.9238 29.5814 10.835 29.8184 10.6572 29.9824C10.484 30.1465 10.2607 30.2285 9.9873 30.2285C9.84603 30.2285 9.71615 30.1966 9.59766 30.1328C9.47917 30.0645 9.37435 29.971 9.2832 29.8525C9.19661 29.734 9.12826 29.5928 9.07812 29.4287C9.02799 29.2646 9.00293 29.0869 9.00293 28.8955C9.00293 28.7041 9.04622 28.5013 9.13281 28.2871C9.2194 28.0729 9.3584 27.8747 9.5498 27.6924C9.74121 27.5055 9.9873 27.3529 10.2881 27.2344C10.5889 27.1113 10.9535 27.0498 11.3818 27.0498C11.8102 27.0498 12.1771 27.1341 12.4824 27.3027C12.7878 27.4668 13.0384 27.6878 13.2344 27.9658C13.4303 28.2393 13.5716 28.556 13.6582 28.916C13.7493 29.276 13.7949 29.6475 13.7949 30.0303C13.7949 30.3174 13.7926 30.6296 13.7881 30.9668C13.7835 31.304 13.7812 31.6504 13.7812 32.0059C13.7812 32.3021 13.7835 32.5983 13.7881 32.8945C13.7926 33.1908 13.8018 33.4779 13.8154 33.7559C13.8291 34.0293 13.8473 34.2891 13.8701 34.5352C13.8929 34.7767 13.9225 34.9932 13.959 35.1846L12.3799 35.2803ZM12.2773 31.2744C12.1178 31.4658 11.9469 31.6299 11.7646 31.7666C11.6279 31.8623 11.4798 31.9694 11.3203 32.0879C11.1654 32.2064 11.0195 32.3317 10.8828 32.4639C10.7507 32.596 10.639 32.735 10.5479 32.8809C10.4613 33.0221 10.418 33.168 10.418 33.3184C10.418 33.5234 10.4681 33.6989 10.5684 33.8447C10.6686 33.9906 10.8099 34.0635 10.9922 34.0635C11.1608 34.0635 11.3112 34.0179 11.4434 33.9268C11.5755 33.8356 11.6917 33.724 11.792 33.5918C11.8968 33.4551 11.9834 33.3092 12.0518 33.1543C12.1247 32.9993 12.1816 32.8581 12.2227 32.7305L12.2773 31.2744ZM16.5703 24.4863C16.543 25.0423 16.5179 25.5573 16.4951 26.0312C16.4723 26.5052 16.4518 26.9518 16.4336 27.3711C16.4199 27.7904 16.4085 28.1891 16.3994 28.5674C16.3903 28.9456 16.3812 29.3193 16.3721 29.6885C16.3675 30.0576 16.363 30.429 16.3584 30.8027C16.3584 31.1764 16.3584 31.5684 16.3584 31.9785C16.3584 32.4342 16.3584 32.9219 16.3584 33.4414C16.3584 33.9609 16.363 34.5374 16.3721 35.1709L14.8203 35.1367C14.8477 34.4486 14.8659 33.7718 14.875 33.1064C14.8841 32.4365 14.8887 31.7507 14.8887 31.0488C14.8887 30.5794 14.8864 30.0986 14.8818 29.6064C14.8773 29.1097 14.8704 28.5924 14.8613 28.0547C14.8522 27.5124 14.8408 26.9427 14.8271 26.3457C14.818 25.7487 14.8066 25.1152 14.793 24.4453L16.5703 24.4863ZM19.1953 24.4863C19.168 25.0423 19.1429 25.5573 19.1201 26.0312C19.0973 26.5052 19.0768 26.9518 19.0586 27.3711C19.0449 27.7904 19.0335 28.1891 19.0244 28.5674C19.0153 28.9456 19.0062 29.3193 18.9971 29.6885C18.9925 30.0576 18.988 30.429 18.9834 30.8027C18.9834 31.1764 18.9834 31.5684 18.9834 31.9785C18.9834 32.4342 18.9834 32.9219 18.9834 33.4414C18.9834 33.9609 18.988 34.5374 18.9971 35.1709L17.4453 35.1367C17.4727 34.4486 17.4909 33.7718 17.5 33.1064C17.5091 32.4365 17.5137 31.7507 17.5137 31.0488C17.5137 30.5794 17.5114 30.0986 17.5068 29.6064C17.5023 29.1097 17.4954 28.5924 17.4863 28.0547C17.4772 27.5124 17.4658 26.9427 17.4521 26.3457C17.443 25.7487 17.4316 25.1152 17.418 24.4453L19.1953 24.4863ZM26.5918 33.168C26.5781 33.1634 26.5439 33.1611 26.4893 33.1611C26.4346 33.1566 26.3662 33.1543 26.2842 33.1543C26.2021 33.1497 26.111 33.1475 26.0107 33.1475C25.9105 33.1429 25.8057 33.1406 25.6963 33.1406C25.4684 33.1406 25.252 33.1429 25.0469 33.1475C24.8464 33.152 24.7028 33.1589 24.6162 33.168C24.6299 32.8672 24.6413 32.5505 24.6504 32.2178C24.6641 31.8805 24.6755 31.5342 24.6846 31.1787H24.042H22.8662C22.8753 31.0238 22.8844 30.8551 22.8936 30.6729C22.9027 30.4906 22.9072 30.2992 22.9072 30.0986C22.9072 29.848 22.8936 29.5814 22.8662 29.2988C23.126 29.3444 23.4131 29.3809 23.7275 29.4082C24.042 29.4355 24.3724 29.4561 24.7188 29.4697V28.9092V27.7334C24.8737 27.7425 25.0423 27.7516 25.2246 27.7607C25.4069 27.7699 25.596 27.7744 25.792 27.7744C26.0426 27.7744 26.3092 27.7607 26.5918 27.7334C26.5508 27.9795 26.5166 28.2529 26.4893 28.5537C26.4619 28.8499 26.4391 29.1598 26.4209 29.4834C26.626 29.4788 26.8219 29.472 27.0088 29.4629C27.1956 29.4538 27.3711 29.4424 27.5352 29.4287C27.6992 29.415 27.8451 29.3968 27.9727 29.374C28.1048 29.3512 28.2142 29.3262 28.3008 29.2988C28.2917 29.3125 28.2848 29.3467 28.2803 29.4014C28.2803 29.4561 28.278 29.5244 28.2734 29.6064C28.2734 29.6885 28.2734 29.7819 28.2734 29.8867C28.2734 29.987 28.2734 30.0918 28.2734 30.2012C28.2734 30.3105 28.2734 30.4222 28.2734 30.5361C28.2734 30.6455 28.2734 30.748 28.2734 30.8438C28.278 30.9395 28.2803 31.026 28.2803 31.1035C28.2848 31.1764 28.2917 31.2334 28.3008 31.2744C28.0046 31.2607 27.6969 31.2493 27.3779 31.2402C27.0635 31.2266 26.7399 31.2152 26.4072 31.2061C26.4118 31.4202 26.4186 31.6276 26.4277 31.8281C26.4368 32.0241 26.4482 32.2087 26.4619 32.3818C26.4801 32.5505 26.4984 32.7031 26.5166 32.8398C26.5394 32.972 26.5645 33.0814 26.5918 33.168ZM34.1455 33.4346C34.141 33.4574 34.1387 33.4824 34.1387 33.5098C34.1341 33.5326 34.1318 33.5622 34.1318 33.5986C34.1318 33.6351 34.1318 33.6784 34.1318 33.7285C34.1318 33.8516 34.1364 34.0225 34.1455 34.2412C34.1546 34.4554 34.1774 34.7129 34.2139 35.0137C33.8402 35.0046 33.4915 35 33.168 35C32.8444 35 32.5391 35 32.252 35C31.6823 35 31.1969 35.0046 30.7959 35.0137C30.3949 35.0228 30.0645 35.0319 29.8047 35.041C29.5039 35.0547 29.2555 35.0684 29.0596 35.082C29.055 35.0684 29.0527 35.0501 29.0527 35.0273C29.0482 35.0091 29.0459 34.9863 29.0459 34.959C29.0459 34.9316 29.0459 34.8997 29.0459 34.8633C29.0459 34.7083 29.0641 34.4896 29.1006 34.207C29.137 33.9245 29.2168 33.6055 29.3398 33.25C29.4674 32.89 29.6543 32.5094 29.9004 32.1084C30.151 31.7074 30.4883 31.3086 30.9121 30.9121C31.1628 30.6751 31.3975 30.4336 31.6162 30.1875C31.835 29.9414 32.0264 29.6816 32.1904 29.4082C32.3545 29.1348 32.4821 28.8431 32.5732 28.5332C32.6689 28.2188 32.7168 27.877 32.7168 27.5078C32.7168 27.207 32.6872 26.9587 32.6279 26.7627C32.5687 26.5622 32.4867 26.4049 32.3818 26.291C32.2816 26.1725 32.1631 26.0905 32.0264 26.0449C31.8942 25.9948 31.7507 25.9697 31.5957 25.9697C31.5273 25.9743 31.459 25.9857 31.3906 26.0039C31.3314 26.0221 31.2653 26.0495 31.1924 26.0859C31.1195 26.1224 31.0488 26.1725 30.9805 26.2363C31.0488 26.3275 31.1012 26.4232 31.1377 26.5234C31.1787 26.6237 31.2106 26.7171 31.2334 26.8037C31.2562 26.904 31.2699 27.0042 31.2744 27.1045C31.2744 27.264 31.2425 27.403 31.1787 27.5215C31.1149 27.64 31.0329 27.7402 30.9326 27.8223C30.8369 27.9043 30.7298 27.9658 30.6113 28.0068C30.4928 28.0479 30.3766 28.0684 30.2627 28.0684C30.1761 28.0684 30.0599 28.057 29.9141 28.0342C29.7728 28.0068 29.6338 27.9476 29.4971 27.8564C29.3604 27.7653 29.2419 27.6309 29.1416 27.4531C29.0413 27.2754 28.9912 27.0339 28.9912 26.7285C28.9912 26.4277 29.0596 26.1566 29.1963 25.915C29.3376 25.6689 29.5244 25.4593 29.7568 25.2861C29.9938 25.1084 30.2673 24.974 30.5771 24.8828C30.887 24.7871 31.2129 24.7393 31.5547 24.7393C31.8919 24.7393 32.2269 24.7985 32.5596 24.917C32.8923 25.0355 33.1885 25.2132 33.4482 25.4502C33.7126 25.6872 33.9268 25.9834 34.0908 26.3389C34.2549 26.6898 34.3369 27.0999 34.3369 27.5693C34.3369 28.139 34.2572 28.6426 34.0977 29.0801C33.9427 29.513 33.7467 29.9027 33.5098 30.249C33.2728 30.5908 33.013 30.903 32.7305 31.1855C32.4525 31.4635 32.1904 31.7324 31.9443 31.9922C31.6162 32.334 31.3633 32.6644 31.1855 32.9834C31.0124 33.2979 30.887 33.5645 30.8096 33.7832C31.2744 33.7695 31.7096 33.7445 32.1152 33.708C32.5208 33.6715 32.874 33.6351 33.1748 33.5986C33.4756 33.5622 33.7126 33.528 33.8857 33.4961C34.0589 33.4642 34.1455 33.4437 34.1455 33.4346ZM34.8975 25.2725C35.4352 25.2588 35.9525 25.2451 36.4492 25.2314C36.6589 25.2269 36.8753 25.2223 37.0986 25.2178C37.3265 25.2087 37.5452 25.2018 37.7549 25.1973C37.9691 25.1927 38.1696 25.1904 38.3564 25.1904C38.5479 25.1859 38.7142 25.1836 38.8555 25.1836C38.9967 25.1836 39.1084 25.1836 39.1904 25.1836C39.277 25.1836 39.3203 25.1882 39.3203 25.1973C39.3203 25.2064 39.3203 25.236 39.3203 25.2861C39.3249 25.3363 39.3271 25.3978 39.3271 25.4707C39.3317 25.5436 39.334 25.6257 39.334 25.7168C39.3385 25.8079 39.3431 25.9014 39.3477 25.9971C39.3568 26.2158 39.3659 26.4642 39.375 26.7422C39.2337 27.0749 39.0879 27.4668 38.9375 27.918C38.7917 28.3691 38.6481 28.8499 38.5068 29.3604C38.3656 29.8662 38.2288 30.388 38.0967 30.9258C37.9645 31.459 37.8438 31.9785 37.7344 32.4844C37.6296 32.9902 37.5384 33.4665 37.4609 33.9131C37.3835 34.3597 37.3265 34.7448 37.29 35.0684L35.5537 35C35.6038 34.6309 35.6722 34.2275 35.7588 33.79C35.8499 33.3525 35.9525 32.8991 36.0664 32.4297C36.1849 31.9603 36.3148 31.4818 36.4561 30.9941C36.5973 30.502 36.7432 30.0166 36.8936 29.5381C37.0485 29.055 37.2057 28.5856 37.3652 28.1299C37.5293 27.6742 37.6911 27.2435 37.8506 26.8379L34.8975 26.9336V25.2725ZM45.6709 35.2393C45.3291 35.2393 44.9919 35.18 44.6592 35.0615C44.3265 34.943 44.028 34.7653 43.7637 34.5283C43.5039 34.2913 43.292 33.9974 43.1279 33.6465C42.9639 33.291 42.8818 32.8786 42.8818 32.4092C42.8818 32.0947 42.9251 31.8145 43.0117 31.5684C43.1029 31.3223 43.2191 31.1081 43.3604 30.9258C43.5062 30.7389 43.668 30.5794 43.8457 30.4473C44.028 30.3151 44.2126 30.208 44.3994 30.126C44.2126 30.0212 44.028 29.8913 43.8457 29.7363C43.668 29.5768 43.5062 29.3923 43.3604 29.1826C43.2191 28.9684 43.1029 28.7269 43.0117 28.458C42.9251 28.1891 42.8818 27.8929 42.8818 27.5693C42.8818 27.0999 42.9639 26.6898 43.1279 26.3389C43.292 25.9834 43.5039 25.6872 43.7637 25.4502C44.028 25.2132 44.3265 25.0355 44.6592 24.917C44.9919 24.7985 45.3291 24.7393 45.6709 24.7393C46.0127 24.7393 46.3477 24.7985 46.6758 24.917C47.0085 25.0355 47.307 25.2132 47.5713 25.4502C47.8356 25.6872 48.0475 25.9834 48.207 26.3389C48.3711 26.6898 48.4531 27.0999 48.4531 27.5693C48.4531 27.8929 48.4098 28.1891 48.3232 28.458C48.2367 28.7269 48.1204 28.9684 47.9746 29.1826C47.8333 29.3923 47.6715 29.5768 47.4893 29.7363C47.3115 29.8913 47.1292 30.0212 46.9424 30.126C47.1292 30.208 47.3115 30.3151 47.4893 30.4473C47.6715 30.5794 47.8333 30.7389 47.9746 30.9258C48.1204 31.1081 48.2367 31.3223 48.3232 31.5684C48.4098 31.8145 48.4531 32.0947 48.4531 32.4092C48.4531 32.8786 48.3711 33.291 48.207 33.6465C48.0475 33.9974 47.8356 34.2913 47.5713 34.5283C47.307 34.7653 47.0085 34.943 46.6758 35.0615C46.3477 35.18 46.0127 35.2393 45.6709 35.2393ZM46.8193 27.2139C46.8193 27.0316 46.7852 26.8652 46.7168 26.7148C46.6484 26.5599 46.5596 26.4277 46.4502 26.3184C46.3454 26.209 46.2269 26.1247 46.0947 26.0654C45.9671 26.0016 45.8395 25.9697 45.7119 25.9697C45.5661 25.9697 45.4202 26.0016 45.2744 26.0654C45.1331 26.1247 45.0055 26.209 44.8916 26.3184C44.7822 26.4277 44.6934 26.5599 44.625 26.7148C44.5566 26.8652 44.5225 27.0316 44.5225 27.2139C44.5225 27.5785 44.5566 27.8906 44.625 28.1504C44.6979 28.4102 44.7891 28.6289 44.8984 28.8066C45.0124 28.9844 45.1354 29.1279 45.2676 29.2373C45.4043 29.3421 45.5387 29.4242 45.6709 29.4834C45.7985 29.4196 45.9284 29.333 46.0605 29.2236C46.1973 29.1143 46.3203 28.9707 46.4297 28.793C46.5436 28.6107 46.637 28.3919 46.71 28.1367C46.7829 27.877 46.8193 27.5693 46.8193 27.2139ZM44.5225 32.7578C44.5225 32.9447 44.5589 33.1156 44.6318 33.2705C44.7048 33.4209 44.7982 33.5508 44.9121 33.6602C45.026 33.7695 45.1536 33.8561 45.2949 33.9199C45.4362 33.9792 45.5752 34.0088 45.7119 34.0088C45.8395 34.0088 45.9671 33.9792 46.0947 33.9199C46.2269 33.8561 46.3454 33.7695 46.4502 33.6602C46.5596 33.5508 46.6484 33.4209 46.7168 33.2705C46.7852 33.1156 46.8193 32.9447 46.8193 32.7578C46.8193 32.416 46.7829 32.1221 46.71 31.876C46.6416 31.6299 46.5505 31.4225 46.4365 31.2539C46.3271 31.0853 46.2041 30.9508 46.0674 30.8506C45.9307 30.7503 45.7985 30.6729 45.6709 30.6182C45.5387 30.6729 45.4043 30.7503 45.2676 30.8506C45.1354 30.9508 45.0124 31.0853 44.8984 31.2539C44.7891 31.418 44.6979 31.623 44.625 31.8691C44.5566 32.1152 44.5225 32.4115 44.5225 32.7578ZM51.1465 29.374C51.151 29.3786 51.1602 29.3809 51.1738 29.3809C51.1875 29.3854 51.2148 29.3877 51.2559 29.3877C51.3242 29.3877 51.4131 29.3809 51.5225 29.3672C51.6318 29.3535 51.748 29.3216 51.8711 29.2715C51.9987 29.2214 52.124 29.1484 52.2471 29.0527C52.3747 28.957 52.4886 28.8294 52.5889 28.6699C52.6937 28.5059 52.778 28.3053 52.8418 28.0684C52.9056 27.8314 52.9375 27.5465 52.9375 27.2139C52.9375 27.0316 52.9033 26.8652 52.835 26.7148C52.7666 26.5599 52.6777 26.4277 52.5684 26.3184C52.4635 26.209 52.3451 26.1247 52.2129 26.0654C52.0853 26.0016 51.9577 25.9697 51.8301 25.9697C51.7617 25.9743 51.6934 25.9857 51.625 26.0039C51.5658 26.0221 51.4997 26.0495 51.4268 26.0859C51.3538 26.1224 51.2832 26.1725 51.2148 26.2363C51.2832 26.3275 51.3356 26.4232 51.3721 26.5234C51.4131 26.6237 51.445 26.7171 51.4678 26.8037C51.4906 26.904 51.5042 27.0042 51.5088 27.1045C51.5088 27.264 51.4769 27.403 51.4131 27.5215C51.3493 27.64 51.2673 27.7402 51.167 27.8223C51.0713 27.9043 50.9642 27.9658 50.8457 28.0068C50.7272 28.0479 50.6133 28.0684 50.5039 28.0684C50.4128 28.0684 50.2943 28.057 50.1484 28.0342C50.0072 28.0068 49.8682 27.9476 49.7314 27.8564C49.5947 27.7653 49.4762 27.6309 49.376 27.4531C49.2757 27.2754 49.2256 27.0339 49.2256 26.7285C49.2256 26.4277 49.2939 26.1566 49.4307 25.915C49.5719 25.6689 49.7588 25.4593 49.9912 25.2861C50.2282 25.1084 50.5016 24.974 50.8115 24.8828C51.1214 24.7871 51.4473 24.7393 51.7891 24.7393C52.1309 24.7393 52.4681 24.7985 52.8008 24.917C53.1335 25.0355 53.4297 25.2132 53.6895 25.4502C53.9538 25.6872 54.168 25.9834 54.332 26.3389C54.4961 26.6898 54.5781 27.0999 54.5781 27.5693C54.5781 27.8929 54.5326 28.1891 54.4414 28.458C54.3548 28.7269 54.2386 28.9684 54.0928 29.1826C53.9515 29.3923 53.7897 29.5768 53.6074 29.7363C53.4297 29.8913 53.2474 30.0212 53.0605 30.126C53.2474 30.208 53.4297 30.3151 53.6074 30.4473C53.7897 30.5794 53.9515 30.7389 54.0928 30.9258C54.2386 31.1081 54.3548 31.3223 54.4414 31.5684C54.5326 31.8145 54.5781 32.0947 54.5781 32.4092C54.5781 32.8786 54.4961 33.291 54.332 33.6465C54.168 33.9974 53.9538 34.2913 53.6895 34.5283C53.4297 34.7653 53.1335 34.943 52.8008 35.0615C52.4681 35.18 52.1309 35.2393 51.7891 35.2393C51.4473 35.2393 51.1214 35.1914 50.8115 35.0957C50.5016 35.0046 50.2282 34.8724 49.9912 34.6992C49.7588 34.5215 49.5719 34.3118 49.4307 34.0703C49.2939 33.8242 49.2256 33.5508 49.2256 33.25C49.2256 32.9447 49.2757 32.7031 49.376 32.5254C49.4762 32.3477 49.5947 32.2132 49.7314 32.1221C49.8682 32.0309 50.0072 31.9717 50.1484 31.9443C50.2943 31.917 50.4128 31.9033 50.5039 31.9033C50.6133 31.9033 50.7272 31.9261 50.8457 31.9717C50.9642 32.0127 51.0713 32.0742 51.167 32.1562C51.2673 32.2383 51.3493 32.3408 51.4131 32.4639C51.4769 32.5824 51.5088 32.7191 51.5088 32.874C51.5042 32.9743 51.4928 33.0745 51.4746 33.1748C51.4564 33.2614 51.4268 33.3548 51.3857 33.4551C51.3447 33.5553 51.2878 33.651 51.2148 33.7422C51.2832 33.8105 51.3538 33.863 51.4268 33.8994C51.4997 33.9313 51.5658 33.9564 51.625 33.9746C51.6934 33.9928 51.7617 34.0042 51.8301 34.0088C51.9577 34.0088 52.0853 33.9792 52.2129 33.9199C52.3451 33.8561 52.4635 33.7695 52.5684 33.6602C52.6777 33.5508 52.7666 33.4209 52.835 33.2705C52.9033 33.1156 52.9375 32.9447 52.9375 32.7578C52.9375 32.4206 52.9033 32.1335 52.835 31.8965C52.7666 31.6549 52.6777 31.4544 52.5684 31.2949C52.459 31.1354 52.3382 31.0101 52.2061 30.9189C52.0739 30.8278 51.944 30.7594 51.8164 30.7139C51.6888 30.6637 51.5703 30.6341 51.4609 30.625C51.3561 30.6113 51.2741 30.6045 51.2148 30.6045H51.1465V29.374ZM63.3896 33.4346C63.3851 33.4574 63.3828 33.4824 63.3828 33.5098C63.3783 33.5326 63.376 33.5622 63.376 33.5986C63.376 33.6351 63.376 33.6784 63.376 33.7285C63.376 33.8516 63.3805 34.0225 63.3896 34.2412C63.3988 34.4554 63.4215 34.7129 63.458 35.0137C63.0843 35.0046 62.7357 35 62.4121 35C62.0885 35 61.7832 35 61.4961 35C60.9264 35 60.4411 35.0046 60.04 35.0137C59.639 35.0228 59.3086 35.0319 59.0488 35.041C58.748 35.0547 58.4997 35.0684 58.3037 35.082C58.2992 35.0684 58.2969 35.0501 58.2969 35.0273C58.2923 35.0091 58.29 34.9863 58.29 34.959C58.29 34.9316 58.29 34.8997 58.29 34.8633C58.29 34.7083 58.3083 34.4896 58.3447 34.207C58.3812 33.9245 58.4609 33.6055 58.584 33.25C58.7116 32.89 58.8984 32.5094 59.1445 32.1084C59.3952 31.7074 59.7324 31.3086 60.1562 30.9121C60.4069 30.6751 60.6416 30.4336 60.8604 30.1875C61.0791 29.9414 61.2705 29.6816 61.4346 29.4082C61.5986 29.1348 61.7262 28.8431 61.8174 28.5332C61.9131 28.2188 61.9609 27.877 61.9609 27.5078C61.9609 27.207 61.9313 26.9587 61.8721 26.7627C61.8128 26.5622 61.7308 26.4049 61.626 26.291C61.5257 26.1725 61.4072 26.0905 61.2705 26.0449C61.1383 25.9948 60.9948 25.9697 60.8398 25.9697C60.7715 25.9743 60.7031 25.9857 60.6348 26.0039C60.5755 26.0221 60.5094 26.0495 60.4365 26.0859C60.3636 26.1224 60.293 26.1725 60.2246 26.2363C60.293 26.3275 60.3454 26.4232 60.3818 26.5234C60.4229 26.6237 60.4548 26.7171 60.4775 26.8037C60.5003 26.904 60.514 27.0042 60.5186 27.1045C60.5186 27.264 60.4867 27.403 60.4229 27.5215C60.359 27.64 60.277 27.7402 60.1768 27.8223C60.0811 27.9043 59.974 27.9658 59.8555 28.0068C59.737 28.0479 59.6208 28.0684 59.5068 28.0684C59.4202 28.0684 59.304 28.057 59.1582 28.0342C59.0169 28.0068 58.8779 27.9476 58.7412 27.8564C58.6045 27.7653 58.486 27.6309 58.3857 27.4531C58.2855 27.2754 58.2354 27.0339 58.2354 26.7285C58.2354 26.4277 58.3037 26.1566 58.4404 25.915C58.5817 25.6689 58.7686 25.4593 59.001 25.2861C59.238 25.1084 59.5114 24.974 59.8213 24.8828C60.1312 24.7871 60.457 24.7393 60.7988 24.7393C61.1361 24.7393 61.471 24.7985 61.8037 24.917C62.1364 25.0355 62.4326 25.2132 62.6924 25.4502C62.9567 25.6872 63.1709 25.9834 63.335 26.3389C63.499 26.6898 63.5811 27.0999 63.5811 27.5693C63.5811 28.139 63.5013 28.6426 63.3418 29.0801C63.1868 29.513 62.9909 29.9027 62.7539 30.249C62.5169 30.5908 62.2572 30.903 61.9746 31.1855C61.6966 31.4635 61.4346 31.7324 61.1885 31.9922C60.8604 32.334 60.6074 32.6644 60.4297 32.9834C60.2565 33.2979 60.1312 33.5645 60.0537 33.7832C60.5186 33.7695 60.9538 33.7445 61.3594 33.708C61.765 33.6715 62.1182 33.6351 62.4189 33.5986C62.7197 33.5622 62.9567 33.528 63.1299 33.4961C63.3031 33.4642 63.3896 33.4437 63.3896 33.4346ZM70.2734 32.3135C70.2734 32.8148 70.2142 33.2614 70.0957 33.6533C69.9772 34.0407 69.8018 34.3688 69.5693 34.6377C69.3415 34.902 69.0589 35.1025 68.7217 35.2393C68.3844 35.3805 67.9948 35.4512 67.5527 35.4512C67.0605 35.4512 66.6162 35.3372 66.2197 35.1094C65.8232 34.8861 65.4837 34.5488 65.2012 34.0977C64.9232 33.6465 64.709 33.0837 64.5586 32.4092C64.4082 31.7301 64.333 30.9372 64.333 30.0303C64.333 29.1234 64.4287 28.3486 64.6201 27.7061C64.8161 27.0635 65.0736 26.5394 65.3926 26.1338C65.7116 25.7236 66.0739 25.4251 66.4795 25.2383C66.8896 25.0469 67.3089 24.9512 67.7373 24.9512C68.1657 24.9512 68.528 25.015 68.8242 25.1426C69.125 25.2656 69.3688 25.4229 69.5557 25.6143C69.7425 25.8057 69.877 26.0176 69.959 26.25C70.0456 26.4779 70.0889 26.6966 70.0889 26.9062C70.0889 27.1159 70.057 27.3005 69.9932 27.46C69.9339 27.6149 69.8542 27.7448 69.7539 27.8496C69.6536 27.9499 69.5397 28.0273 69.4121 28.082C69.2891 28.1322 69.1637 28.1572 69.0361 28.1572C68.9131 28.1572 68.79 28.1413 68.667 28.1094C68.5485 28.0775 68.4437 28.0228 68.3525 27.9453C68.2614 27.8633 68.1862 27.7585 68.127 27.6309C68.0723 27.4987 68.0449 27.3369 68.0449 27.1455C68.0495 27.0498 68.0609 26.9564 68.0791 26.8652C68.0973 26.7878 68.1247 26.7035 68.1611 26.6123C68.2021 26.5166 68.2614 26.4277 68.3389 26.3457C68.2705 26.2682 68.1953 26.209 68.1133 26.168C68.0312 26.127 67.9515 26.0951 67.874 26.0723C67.7874 26.0495 67.7008 26.0335 67.6143 26.0244C67.4365 26.0244 67.2565 26.1019 67.0742 26.2568C66.8965 26.4118 66.7324 26.651 66.582 26.9746C66.4316 27.2936 66.3063 27.7015 66.2061 28.1982C66.1104 28.6904 66.0602 29.2783 66.0557 29.9619C66.3018 29.6383 66.5798 29.3968 66.8896 29.2373C67.2041 29.0732 67.5231 28.9912 67.8467 28.9912C68.1566 28.9912 68.4574 29.0618 68.749 29.2031C69.0407 29.3444 69.2982 29.554 69.5215 29.832C69.7493 30.11 69.9316 30.4564 70.0684 30.8711C70.2051 31.2858 70.2734 31.7666 70.2734 32.3135ZM67.6006 34.3301C67.9378 34.3301 68.1999 34.1546 68.3867 33.8037C68.5781 33.4482 68.6738 32.9515 68.6738 32.3135C68.6738 32.0173 68.6442 31.7484 68.585 31.5068C68.5257 31.2607 68.4437 31.0511 68.3389 30.8779C68.234 30.7002 68.111 30.5635 67.9697 30.4678C67.8285 30.3721 67.6758 30.3242 67.5117 30.3242C67.293 30.3242 67.0628 30.4085 66.8213 30.5771C66.5843 30.7458 66.3428 31.0215 66.0967 31.4043C66.1423 31.901 66.2106 32.334 66.3018 32.7031C66.3975 33.0677 66.5114 33.3708 66.6436 33.6123C66.7757 33.8538 66.9215 34.0339 67.0811 34.1523C67.2451 34.2708 67.4183 34.3301 67.6006 34.3301ZM74.0605 34.9316L72.2559 35.1094C72.265 34.804 72.2718 34.4896 72.2764 34.166C72.2855 33.8379 72.2923 33.5143 72.2969 33.1953C72.3014 32.8717 72.306 32.5573 72.3105 32.252C72.3151 31.9421 72.3174 31.6504 72.3174 31.377C72.3219 30.7298 72.3242 30.0986 72.3242 29.4834L72.2969 27.6104L71.7637 28.5469L70.5742 27.5352C70.6289 27.4577 70.695 27.3665 70.7725 27.2617C70.8499 27.1569 70.932 27.0452 71.0186 26.9268C71.1051 26.8083 71.194 26.6875 71.2852 26.5645C71.3763 26.4368 71.4652 26.3138 71.5518 26.1953C71.7523 25.9173 71.9619 25.6279 72.1807 25.3271L73.9033 25.2451C73.8942 25.5277 73.8851 25.8171 73.876 26.1133C73.8714 26.4049 73.8669 26.6943 73.8623 26.9814C73.8577 27.264 73.8532 27.5374 73.8486 27.8018C73.8486 28.0661 73.8486 28.3099 73.8486 28.5332C73.8486 28.7109 73.8486 28.8727 73.8486 29.0186C73.8486 29.1644 73.8509 29.2897 73.8555 29.3945C73.8555 29.5176 73.8577 29.627 73.8623 29.7227C73.8623 30.2513 73.8714 30.8073 73.8896 31.3906C73.8942 31.6367 73.901 31.9033 73.9102 32.1904C73.9238 32.473 73.9375 32.7669 73.9512 33.0723C73.9648 33.373 73.9808 33.6807 73.999 33.9951C74.0173 34.3096 74.0378 34.6217 74.0605 34.9316ZM84.0547 30.0986C84.0547 30.8278 83.9932 31.5046 83.8701 32.1289C83.7471 32.7533 83.5602 33.2956 83.3096 33.7559C83.0589 34.2116 82.7422 34.5716 82.3594 34.8359C81.9766 35.0957 81.5254 35.2256 81.0059 35.2256C80.4772 35.2256 80.0192 35.0957 79.6318 34.8359C79.249 34.5716 78.9323 34.2116 78.6816 33.7559C78.4355 33.2956 78.251 32.7533 78.1279 32.1289C78.0094 31.5046 77.9502 30.8278 77.9502 30.0986C77.9502 29.374 78.0072 28.7018 78.1211 28.082C78.2396 27.4577 78.4219 26.9176 78.668 26.4619C78.9141 26.0016 79.2285 25.6416 79.6113 25.3818C79.9987 25.1221 80.4635 24.9922 81.0059 24.9922C81.5618 24.9922 82.0335 25.1221 82.4209 25.3818C82.8083 25.6416 83.1227 26.0016 83.3643 26.4619C83.6058 26.9176 83.7812 27.4577 83.8906 28.082C84 28.7018 84.0547 29.374 84.0547 30.0986ZM82.2637 30.0986C82.2637 29.3831 82.2318 28.7747 82.168 28.2734C82.1087 27.7676 82.0244 27.3574 81.915 27.043C81.8057 26.7285 81.6735 26.5007 81.5186 26.3594C81.3636 26.2135 81.1927 26.1406 81.0059 26.1406C80.8327 26.1406 80.6709 26.2272 80.5205 26.4004C80.3701 26.569 80.2357 26.8197 80.1172 27.1523C80.0033 27.485 79.9121 27.8997 79.8438 28.3965C79.7799 28.8887 79.748 29.4561 79.748 30.0986C79.748 30.8005 79.7777 31.402 79.8369 31.9033C79.8962 32.4046 79.9805 32.8171 80.0898 33.1406C80.1992 33.4596 80.3314 33.6966 80.4863 33.8516C80.6413 34.002 80.8145 34.0771 81.0059 34.0771C81.1836 34.0771 81.3477 34.0065 81.498 33.8652C81.653 33.724 81.7874 33.4961 81.9014 33.1816C82.0153 32.8672 82.1042 32.457 82.168 31.9512C82.2318 31.4453 82.2637 30.8278 82.2637 30.0986ZM90.7949 32.3135C90.7949 32.8148 90.7357 33.2614 90.6172 33.6533C90.4987 34.0407 90.3232 34.3688 90.0908 34.6377C89.863 34.902 89.5804 35.1025 89.2432 35.2393C88.9059 35.3805 88.5163 35.4512 88.0742 35.4512C87.582 35.4512 87.1377 35.3372 86.7412 35.1094C86.3447 34.8861 86.0052 34.5488 85.7227 34.0977C85.4447 33.6465 85.2305 33.0837 85.0801 32.4092C84.9297 31.7301 84.8545 30.9372 84.8545 30.0303C84.8545 29.1234 84.9502 28.3486 85.1416 27.7061C85.3376 27.0635 85.5951 26.5394 85.9141 26.1338C86.2331 25.7236 86.5954 25.4251 87.001 25.2383C87.4111 25.0469 87.8304 24.9512 88.2588 24.9512C88.6872 24.9512 89.0495 25.015 89.3457 25.1426C89.6465 25.2656 89.8903 25.4229 90.0771 25.6143C90.264 25.8057 90.3984 26.0176 90.4805 26.25C90.5671 26.4779 90.6104 26.6966 90.6104 26.9062C90.6104 27.1159 90.5785 27.3005 90.5146 27.46C90.4554 27.6149 90.3757 27.7448 90.2754 27.8496C90.1751 27.9499 90.0612 28.0273 89.9336 28.082C89.8105 28.1322 89.6852 28.1572 89.5576 28.1572C89.4346 28.1572 89.3115 28.1413 89.1885 28.1094C89.07 28.0775 88.9652 28.0228 88.874 27.9453C88.7829 27.8633 88.7077 27.7585 88.6484 27.6309C88.5938 27.4987 88.5664 27.3369 88.5664 27.1455C88.571 27.0498 88.5824 26.9564 88.6006 26.8652C88.6188 26.7878 88.6462 26.7035 88.6826 26.6123C88.7236 26.5166 88.7829 26.4277 88.8604 26.3457C88.792 26.2682 88.7168 26.209 88.6348 26.168C88.5527 26.127 88.473 26.0951 88.3955 26.0723C88.3089 26.0495 88.2223 26.0335 88.1357 26.0244C87.958 26.0244 87.778 26.1019 87.5957 26.2568C87.418 26.4118 87.2539 26.651 87.1035 26.9746C86.9531 27.2936 86.8278 27.7015 86.7275 28.1982C86.6318 28.6904 86.5817 29.2783 86.5771 29.9619C86.8232 29.6383 87.1012 29.3968 87.4111 29.2373C87.7256 29.0732 88.0446 28.9912 88.3682 28.9912C88.6781 28.9912 88.9788 29.0618 89.2705 29.2031C89.5622 29.3444 89.8197 29.554 90.043 29.832C90.2708 30.11 90.4531 30.4564 90.5898 30.8711C90.7266 31.2858 90.7949 31.7666 90.7949 32.3135ZM88.1221 34.3301C88.4593 34.3301 88.7214 34.1546 88.9082 33.8037C89.0996 33.4482 89.1953 32.9515 89.1953 32.3135C89.1953 32.0173 89.1657 31.7484 89.1064 31.5068C89.0472 31.2607 88.9652 31.0511 88.8604 30.8779C88.7555 30.7002 88.6325 30.5635 88.4912 30.4678C88.3499 30.3721 88.1973 30.3242 88.0332 30.3242C87.8145 30.3242 87.5843 30.4085 87.3428 30.5771C87.1058 30.7458 86.8643 31.0215 86.6182 31.4043C86.6637 31.901 86.7321 32.334 86.8232 32.7031C86.9189 33.0677 87.0329 33.3708 87.165 33.6123C87.2972 33.8538 87.443 34.0339 87.6025 34.1523C87.7666 34.2708 87.9398 34.3301 88.1221 34.3301ZM94.1445 35.2939C93.8027 35.2939 93.4746 35.2461 93.1602 35.1504C92.8457 35.0592 92.5654 34.9202 92.3193 34.7334C92.0778 34.5465 91.8841 34.3118 91.7383 34.0293C91.597 33.7467 91.5264 33.4163 91.5264 33.0381C91.5264 32.7464 91.5697 32.5026 91.6562 32.3066C91.7474 32.1107 91.859 31.9535 91.9912 31.835C92.1234 31.7165 92.2646 31.6344 92.415 31.5889C92.5654 31.5387 92.7044 31.5137 92.832 31.5137C92.9642 31.5137 93.1009 31.5342 93.2422 31.5752C93.388 31.6162 93.5179 31.6846 93.6318 31.7803C93.7503 31.876 93.846 32.0059 93.9189 32.1699C93.9964 32.3294 94.0352 32.5299 94.0352 32.7715C94.026 32.9128 93.9964 33.0449 93.9463 33.168C93.9007 33.2728 93.8301 33.3776 93.7344 33.4824C93.6387 33.5827 93.5042 33.6556 93.3311 33.7012C93.4632 33.847 93.6136 33.9609 93.7822 34.043C93.9554 34.1204 94.1012 34.1592 94.2197 34.1592C94.3473 34.1592 94.4863 34.1227 94.6367 34.0498C94.7917 33.9723 94.9352 33.8493 95.0674 33.6807C95.1995 33.512 95.3089 33.2956 95.3955 33.0312C95.4867 32.7669 95.5322 32.4434 95.5322 32.0605C95.5322 31.8145 95.5094 31.5889 95.4639 31.3838C95.4229 31.1742 95.3477 30.9827 95.2383 30.8096C95.1289 30.6364 94.9808 30.4792 94.7939 30.3379C94.6117 30.1921 94.3815 30.0576 94.1035 29.9346C94.0078 29.8936 93.9007 29.8571 93.7822 29.8252C93.6683 29.7887 93.5475 29.7591 93.4199 29.7363C93.2923 29.7135 93.1602 29.693 93.0234 29.6748C92.8913 29.6566 92.7637 29.6429 92.6406 29.6338C92.349 29.611 92.0482 29.5973 91.7383 29.5928L92.0322 25.5049C92.1325 25.4775 92.276 25.4525 92.4629 25.4297C92.6543 25.4023 92.8685 25.3773 93.1055 25.3545C93.3424 25.3317 93.5954 25.3112 93.8643 25.293C94.1331 25.2747 94.3997 25.2565 94.6641 25.2383C95.2839 25.1973 95.9561 25.1608 96.6807 25.1289L96.6123 26.7422C96.5485 26.7422 96.4528 26.7422 96.3252 26.7422C96.1976 26.7376 96.0518 26.7354 95.8877 26.7354C95.7236 26.7308 95.5459 26.7285 95.3545 26.7285C95.1676 26.724 94.9808 26.7194 94.7939 26.7148C94.3519 26.7057 93.8711 26.6943 93.3516 26.6807L93.249 28.2529C93.4404 28.2712 93.6227 28.2871 93.7959 28.3008C93.9691 28.3145 94.14 28.3395 94.3086 28.376C94.4772 28.4079 94.6481 28.4557 94.8213 28.5195C94.9945 28.5833 95.1745 28.6722 95.3613 28.7861C95.9538 29.1507 96.3913 29.57 96.6738 30.0439C96.9564 30.5179 97.0977 31.0693 97.0977 31.6982C97.0977 32.1403 97.027 32.5755 96.8857 33.0039C96.7445 33.4323 96.5439 33.8174 96.2842 34.1592C96.029 34.4964 95.7191 34.7699 95.3545 34.9795C94.9899 35.1891 94.5866 35.2939 94.1445 35.2939Z" fill="#E5E5E5"/>
</svg>
